<svg width="38" height="38" viewBox="0 0 38 38" fill="none" xmlns="http://www.w3.org/2000/svg">
<path d="M8.3125 4.75C10.28 4.75 11.875 6.34499 11.875 8.3125V11.875H8.3125C6.34499 11.875 4.75 10.28 4.75 8.3125C4.75 6.34499 6.34499 4.75 8.3125 4.75ZM14.25 11.875V8.3125C14.25 5.03331 11.5917 2.375 8.3125 2.375C5.03331 2.375 2.375 5.03331 2.375 8.3125C2.375 11.5917 5.03331 14.25 8.3125 14.25H11.875V23.75H8.3125C5.03331 23.75 2.375 26.4083 2.375 29.6875C2.375 32.9667 5.03331 35.625 8.3125 35.625C11.5917 35.625 14.25 32.9667 14.25 29.6875V26.125H23.75V29.6875C23.75 32.9667 26.4083 35.625 29.6875 35.625C32.9667 35.625 35.625 32.9667 35.625 29.6875C35.625 26.4083 32.9667 23.75 29.6875 23.75H26.125V14.25H29.6875C32.9667 14.25 35.625 11.5917 35.625 8.3125C35.625 5.03331 32.9667 2.375 29.6875 2.375C26.4083 2.375 23.75 5.03331 23.75 8.3125V11.875H14.25ZM23.75 14.25V23.75H14.25V14.25H23.75ZM26.125 11.875V8.3125C26.125 6.34499 27.72 4.75 29.6875 4.75C31.655 4.75 33.25 6.34499 33.25 8.3125C33.25 10.28 31.655 11.875 29.6875 11.875H26.125ZM26.125 26.125H29.6875C31.655 26.125 33.25 27.72 33.25 29.6875C33.25 31.655 31.655 33.25 29.6875 33.25C27.72 33.25 26.125 31.655 26.125 29.6875V26.125ZM11.875 26.125V29.6875C11.875 31.655 10.28 33.25 8.3125 33.25C6.34499 33.25 4.75 31.655 4.75 29.6875C4.75 27.72 6.34499 26.125 8.3125 26.125H11.875Z" fill="#1D80FF"/>
</svg>
