<svg width="38" height="38" viewBox="0 0 38 38" fill="none" xmlns="http://www.w3.org/2000/svg">
<path d="M19.1412 15.4375C19.797 15.4375 20.3287 15.9692 20.3287 16.625V18.467C20.3287 21.3041 19.8866 24.1239 19.0185 26.8249L15.8571 36.6604C15.6564 37.2847 14.9875 37.6282 14.3632 37.4275C13.7388 37.2268 13.3953 36.558 13.596 35.9336L16.7574 26.0981C17.5501 23.632 17.9537 21.0574 17.9537 18.467V16.625C17.9537 15.9692 18.4854 15.4375 19.1412 15.4375Z" fill="#1D80FF"/>
<path d="M14.3912 16.625C14.3912 14.0016 16.5179 11.875 19.1412 11.875C21.7646 11.875 23.8912 14.0016 23.8912 16.625C23.8912 17.2808 23.3596 17.8125 22.7037 17.8125C22.0479 17.8125 21.5162 17.2808 21.5162 16.625C21.5162 15.3133 20.4529 14.25 19.1412 14.25C17.8295 14.25 16.7662 15.3133 16.7662 16.625V17.4143C16.7662 18.384 16.7146 19.3518 16.6119 20.3136C16.5423 20.9657 15.9572 21.4379 15.3051 21.3683C14.6529 21.2987 14.1807 20.7136 14.2503 20.0614C14.3441 19.1833 14.3912 18.2997 14.3912 17.4143V16.625ZM22.7257 19.0004C23.3813 19.0174 23.899 19.5627 23.882 20.2183C23.8122 22.9143 23.3433 25.5865 22.4896 28.1475L19.4814 37.172C19.274 37.7942 18.6015 38.1305 17.9794 37.9231C17.3572 37.7157 17.0209 37.0432 17.2283 36.421L20.2365 27.3964C21.0159 25.0581 21.444 22.6183 21.5078 20.1567C21.5248 19.5011 22.0701 18.9834 22.7257 19.0004ZM14.7567 24.0236C15.3831 24.218 15.7333 24.8833 15.5389 25.5097L12.4444 35.4808C12.25 36.1071 11.5847 36.4573 10.9583 36.2629C10.332 36.0685 9.98177 35.4032 10.1762 34.7768L13.2706 24.8058C13.465 24.1794 14.1304 23.8292 14.7567 24.0236Z" fill="#1D80FF"/>
<path d="M11.3021 13.8543C12.4427 10.6273 15.5201 8.3125 19.1413 8.3125C23.7322 8.3125 27.4538 12.0341 27.4538 16.625C27.4538 17.2808 26.9221 17.8125 26.2663 17.8125C25.6105 17.8125 25.0788 17.2808 25.0788 16.625C25.0788 13.3458 22.4205 10.6875 19.1413 10.6875C16.5579 10.6875 14.357 12.338 13.5413 14.6457C13.3228 15.2641 12.6443 15.5882 12.026 15.3696C11.4076 15.1511 11.0835 14.4726 11.3021 13.8543ZM12.016 17.8182C12.6687 17.8824 13.1458 18.4635 13.0816 19.1162C12.921 20.7495 12.6027 22.3653 12.13 23.941L9.22877 33.6119C9.04032 34.2401 8.37831 34.5965 7.75013 34.4081C7.12195 34.2196 6.76548 33.5576 6.95393 32.9294L9.8552 23.2585C10.2838 21.8299 10.5724 20.3647 10.718 18.8838C10.7822 18.2311 11.3633 17.754 12.016 17.8182ZM26.2663 19.3563C26.9221 19.3563 27.4538 19.8879 27.4538 20.5438C27.4538 23.5847 26.946 26.6043 25.9512 29.478L23.3651 36.949C23.1506 37.5688 22.4742 37.8973 21.8545 37.6828C21.2347 37.4682 20.9062 36.7919 21.1207 36.1722L23.7069 28.7011C24.6151 26.0773 25.0788 23.3203 25.0788 20.5438C25.0788 19.8879 25.6105 19.3563 26.2663 19.3563Z" fill="#1D80FF"/>
<path d="M9.26658 10.0269C11.3949 6.84747 15.0228 4.75 19.1412 4.75C19.9908 4.75 20.8209 4.83942 21.6221 5.00979C22.2636 5.1462 22.673 5.77682 22.5366 6.41832C22.4002 7.05981 21.7696 7.46926 21.1281 7.33284C20.4883 7.1968 19.8238 7.125 19.1412 7.125C15.8486 7.125 12.9464 8.7991 11.2402 11.3481C10.8754 11.8931 10.1379 12.0391 9.59285 11.6743C9.04784 11.3095 8.90177 10.5719 9.26658 10.0269ZM25.2265 7.75839C25.6553 7.26213 26.4052 7.20743 26.9014 7.6362C29.4196 9.81195 31.0162 13.0327 31.0162 16.625V20.1875C31.0162 20.8433 30.4845 21.375 29.8287 21.375C29.1729 21.375 28.6412 20.8433 28.6412 20.1875V16.625C28.6412 13.7516 27.367 11.1771 25.3487 9.43332C24.8524 9.00454 24.7977 8.25465 25.2265 7.75839ZM8.74231 13.8758C9.39111 13.9716 9.83941 14.5752 9.74362 15.224C9.6762 15.6806 9.64119 16.1483 9.64119 16.625C9.64119 18.3124 9.4024 19.9914 8.93193 21.6119L6.22692 30.9292C6.04406 31.559 5.38525 31.9213 4.75542 31.7385C4.12559 31.5556 3.76324 30.8968 3.9461 30.267L6.65111 20.9497C7.05911 19.5444 7.26619 18.0884 7.26619 16.625C7.26619 16.0318 7.30977 15.4481 7.39409 14.8771C7.48988 14.2283 8.0935 13.78 8.74231 13.8758ZM29.8365 22.5667C30.49 22.6215 30.9754 23.1957 30.9206 23.8493C30.7212 26.225 30.2114 28.5677 29.4017 30.817L27.6328 35.7306C27.4106 36.3477 26.7303 36.6679 26.1132 36.4457C25.4962 36.2236 25.176 35.5433 25.3982 34.9262L27.1671 30.0125C27.9064 27.9588 28.3719 25.8198 28.5539 23.6507C28.6087 22.9972 29.183 22.5118 29.8365 22.5667Z" fill="#1D80FF"/>
<path d="M11.4216 3.25348C13.6935 1.93928 16.3314 1.1875 19.1412 1.1875C27.6671 1.1875 34.5787 8.0991 34.5787 16.625C34.5787 17.2808 34.0471 17.8125 33.3912 17.8125C32.7354 17.8125 32.2037 17.2808 32.2037 16.625C32.2037 9.41078 26.3554 3.5625 19.1412 3.5625C16.76 3.5625 14.531 4.19858 12.6109 5.30929C12.0432 5.63769 11.3167 5.44369 10.9883 4.87599C10.6599 4.3083 10.8539 3.58187 11.4216 3.25348ZM9.31168 6.24015C9.80037 6.67754 9.84196 7.42827 9.40457 7.91696C7.33546 10.2288 6.07873 13.2787 6.07873 16.625C6.07873 17.2808 5.54707 17.8125 4.89123 17.8125C4.23539 17.8125 3.70373 17.2808 3.70373 16.625C3.70373 12.6719 5.1911 9.06344 7.63487 6.33304C8.07226 5.84435 8.823 5.80276 9.31168 6.24015ZM4.54477 19.0444C5.17611 19.2219 5.54397 19.8777 5.36641 20.509L3.51821 27.0804C3.34064 27.7117 2.68489 28.0796 2.05355 27.902C1.42221 27.7245 1.05435 27.0687 1.23191 26.4374L3.08011 19.866C3.25768 19.2346 3.91343 18.8668 4.54477 19.0444ZM33.4008 20.1877C34.0565 20.2006 34.5777 20.7425 34.5648 21.3982C34.4951 24.9587 34.1833 28.5824 32.8397 32.1652L32.6737 32.608C32.4434 33.222 31.7589 33.5332 31.1448 33.3029C30.5307 33.0726 30.2196 32.3881 30.4499 31.774L30.6159 31.3313C31.8179 28.1259 32.1223 24.8213 32.1903 21.3517C32.2031 20.696 32.7451 20.1749 33.4008 20.1877Z" fill="#1D80FF"/>
</svg>
