<svg width="38" height="38" viewBox="0 0 38 38" fill="none" xmlns="http://www.w3.org/2000/svg">
<path d="M19.5588 3.70221C19.2096 3.51593 18.7904 3.51593 18.4412 3.70221L0.628677 13.2022C0.241714 13.4086 0 13.8114 0 14.25C0 14.6886 0.241714 15.0914 0.628677 15.2978L7.57031 19L0.628677 22.7022C0.241714 22.9086 0 23.3114 0 23.75C0 24.1886 0.241714 24.5914 0.628677 24.7978L18.4412 34.2978C18.7904 34.4841 19.2096 34.4841 19.5588 34.2978L37.3713 24.7978C37.7583 24.5914 38 24.1886 38 23.75C38 23.3114 37.7583 22.9086 37.3713 22.7022L30.4297 19L37.3713 15.2978C37.7583 15.0914 38 14.6886 38 14.25C38 13.8114 37.7583 13.4086 37.3713 13.2022L19.5588 3.70221ZM27.9062 20.3458L34.2891 23.75L19 31.9042L3.71094 23.75L10.0938 20.3458L18.4412 24.7978C18.7904 24.9841 19.2096 24.9841 19.5588 24.7978L27.9062 20.3458ZM19 22.4042L3.71094 14.25L19 6.09583L34.2891 14.25L19 22.4042Z" fill="#1D80FF"/>
</svg>
