<svg width="38" height="38" viewBox="0 0 38 38" fill="none" xmlns="http://www.w3.org/2000/svg">
<path d="M19 11.875C20.9675 11.875 22.5625 10.28 22.5625 8.3125C22.5625 6.34499 20.9675 4.75 19 4.75C17.0325 4.75 15.4375 6.34499 15.4375 8.3125C15.4375 10.28 17.0325 11.875 19 11.875Z" fill="#1D80FF"/>
<path d="M28.5 19C30.4675 19 32.0625 17.405 32.0625 15.4375C32.0625 13.47 30.4675 11.875 28.5 11.875C26.5325 11.875 24.9375 13.47 24.9375 15.4375C24.9375 17.405 26.5325 19 28.5 19Z" fill="#1D80FF"/>
<path d="M13.0625 16.625C13.0625 18.5925 11.4675 20.1875 9.5 20.1875C7.53249 20.1875 5.9375 18.5925 5.9375 16.625C5.9375 14.6575 7.53249 13.0625 9.5 13.0625C11.4675 13.0625 13.0625 14.6575 13.0625 16.625Z" fill="#1D80FF"/>
<path d="M14.25 30.875C16.2175 30.875 17.8125 29.28 17.8125 27.3125C17.8125 25.345 16.2175 23.75 14.25 23.75C12.2825 23.75 10.6875 25.345 10.6875 27.3125C10.6875 29.28 12.2825 30.875 14.25 30.875Z" fill="#1D80FF"/>
<path d="M38 19C38 26.4826 33.5673 25.1393 29.529 23.9156C27.1215 23.1861 24.8542 22.499 23.75 23.75C22.3185 25.3719 22.6221 28.0693 22.9163 30.6835C23.3377 34.427 23.7399 38 19 38C8.50659 38 0 29.4934 0 19C0 8.50659 8.50659 0 19 0C29.4934 0 38 8.50659 38 19ZM19 35.625C20.4513 35.625 20.5523 35.2179 20.5551 35.2065C20.7406 34.8604 20.8497 34.1039 20.7212 32.55C20.6881 32.1504 20.6345 31.6684 20.5763 31.145C20.4538 30.0434 20.3108 28.7585 20.2963 27.6725C20.2738 25.9955 20.4945 23.8494 21.9694 22.1784C22.844 21.1875 23.9756 20.8047 24.9889 20.7095C25.9496 20.6193 26.9192 20.772 27.7436 20.957C28.5586 21.1398 29.4118 21.3984 30.1786 21.6308L30.2467 21.6514C31.0669 21.9 31.8071 22.1225 32.5089 22.2817C34.0598 22.6334 34.6557 22.4791 34.8633 22.3394C34.9538 22.2785 35.625 21.7578 35.625 19C35.625 9.81827 28.1817 2.375 19 2.375C9.81827 2.375 2.375 9.81827 2.375 19C2.375 28.1817 9.81827 35.625 19 35.625Z" fill="#1D80FF"/>
</svg>
